<svg id="Capa_1" enable-background="new 0 0 510 510" height="512" viewBox="0 0 510 510" width="512" xmlns="http://www.w3.org/2000/svg" xmlns:xlink="http://www.w3.org/1999/xlink"><linearGradient id="SVGID_1_" gradientUnits="userSpaceOnUse" x1="255" x2="255" y1="62.906" y2="269.04"><stop offset="0" stop-color="#18cefb"/><stop offset=".8231" stop-color="#0590fc"/><stop offset="1" stop-color="#0182fc"/></linearGradient><linearGradient id="lg1"><stop offset="0" stop-color="#7ca1b1"/><stop offset="1" stop-color="#537983"/></linearGradient><linearGradient id="SVGID_2_" gradientUnits="userSpaceOnUse" x1="219.085" x2="290.582" xlink:href="#lg1" y1="-4.137" y2="258.021"/><linearGradient id="lg2"><stop offset="0" stop-color="#537983" stop-opacity="0"/><stop offset="1" stop-color="#3e5959"/></linearGradient><linearGradient id="SVGID_3_" gradientUnits="userSpaceOnUse" x1="255" x2="255" xlink:href="#lg2" y1="207.982" y2="243.853"/><linearGradient id="lg3"><stop offset="0" stop-color="#3e5959" stop-opacity="0"/><stop offset="1" stop-color="#3e5959"/></linearGradient><linearGradient id="SVGID_4_" gradientUnits="userSpaceOnUse" x1="355.958" x2="330.847" xlink:href="#lg3" y1="199.805" y2="217.274"/><linearGradient id="lg4"><stop offset="0" stop-color="#537983"/><stop offset="1" stop-color="#3e5959"/></linearGradient><linearGradient id="SVGID_5_" gradientUnits="userSpaceOnUse" x1="179.293" x2="329.544" xlink:href="#lg4" y1="259.594" y2="409.844"/><linearGradient id="SVGID_6_" gradientUnits="userSpaceOnUse" x1="203.508" x2="166.386" xlink:href="#lg2" y1="363.717" y2="382.642"/><linearGradient id="SVGID_7_" gradientUnits="userSpaceOnUse" x1="385.016" x2="293.304" xlink:href="#lg2" y1="170.158" y2="339.389"/><linearGradient id="SVGID_8_" gradientUnits="userSpaceOnUse" x1="254.344" x2="254.344" xlink:href="#lg4" y1="207.907" y2="147.847"/><linearGradient id="SVGID_9_" gradientTransform="matrix(.736 -.306 .2 .48 376.017 222.826)" gradientUnits="userSpaceOnUse" x1="-390.811" x2="-320.526" xlink:href="#lg4" y1="-11.24" y2="59.045"/><linearGradient id="SVGID_10_" gradientTransform="matrix(.923 -.384 .384 .923 156.919 408.451)" gradientUnits="userSpaceOnUse" x1="-88.787" x2="-15.749" xlink:href="#lg4" y1="-106.532" y2="-33.495"/><linearGradient id="SVGID_11_" gradientUnits="userSpaceOnUse" x1="369.298" x2="396.958" xlink:href="#lg4" y1="326.614" y2="340.08"/><linearGradient id="SVGID_12_" gradientUnits="userSpaceOnUse" x1="403.392" x2="477.999" xlink:href="#lg4" y1="342.073" y2="374.828"/><linearGradient id="SVGID_13_" gradientUnits="userSpaceOnUse" x1="191.019" x2="326.951" xlink:href="#lg1" y1="324.295" y2="460.227"/><linearGradient id="SVGID_14_" gradientUnits="userSpaceOnUse" x1="333.238" x2="240.798" xlink:href="#lg2" y1="322.771" y2="466.162"/><linearGradient id="SVGID_15_" gradientUnits="userSpaceOnUse" x1="255" x2="255" xlink:href="#lg2" y1="403.342" y2="504.983"/><linearGradient id="SVGID_16_" gradientUnits="userSpaceOnUse" x1="365.113" x2="260.719" xlink:href="#lg3" y1="515.959" y2="411.565"/><linearGradient id="lg5"><stop offset="0" stop-color="#ffe177"/><stop offset="1" stop-color="#fe9738"/></linearGradient><linearGradient id="SVGID_17_" gradientUnits="userSpaceOnUse" x1="226.18" x2="296.091" xlink:href="#lg5" y1="377.026" y2="446.937"/><linearGradient id="SVGID_18_" gradientUnits="userSpaceOnUse" x1="308.766" x2="275.089" y1="459.486" y2="425.809"><stop offset="0" stop-color="#fe9738" stop-opacity="0"/><stop offset="1" stop-color="#fe7701"/></linearGradient><linearGradient id="SVGID_19_" gradientUnits="userSpaceOnUse" x1="255" x2="255" xlink:href="#lg5" y1="369.859" y2="450.293"/><g><g><path d="m414.816 13.68h-159.816-159.816c-32.542 0-58.922 24.074-58.922 53.77v120.204c0 29.696 26.38 53.77 58.922 53.77h95.303c15.767 0 30.27-7.875 37.792-20.521l9.723-16.347c7.32-12.307 26.678-12.307 33.997 0l9.723 16.347c7.522 12.646 22.024 20.521 37.792 20.521h95.303c32.542 0 58.922-24.074 58.922-53.771v-120.202c-.001-29.697-26.381-53.771-58.923-53.771z" fill="url(#SVGID_1_)"/><path d="m418.941 3.737h-163.941-163.941c-33.382 0-60.443 27.061-60.443 60.443v126.746c0 33.381 27.061 60.443 60.443 60.443h97.762c16.174 0 31.051-8.852 38.767-23.068l9.974-18.376c7.509-13.834 27.366-13.834 34.875 0l9.974 18.376c7.716 14.215 22.593 23.068 38.767 23.068h97.762c33.382 0 60.443-27.061 60.443-60.443v-126.746c.001-33.382-27.061-60.443-60.442-60.443zm26.281 183.664c0 16.651-14.756 30.197-32.893 30.197h-93.82c-6.32 0-12.118-3.168-15.131-8.266l-9.573-16.19c-7.731-13.076-22.6-21.198-38.805-21.198-16.206 0-31.075 8.123-38.805 21.198l-9.572 16.19c-3.015 5.099-8.813 8.266-15.132 8.266h-93.82c-18.137 0-32.893-13.547-32.893-30.197v-119.696c0-16.651 14.756-30.197 32.893-30.197h314.658c18.137 0 32.893 13.547 32.893 30.197z" fill="url(#SVGID_2_)"/><path d="m445.222 165.667v21.733c0 16.65-14.756 30.197-32.893 30.197h-93.82c-6.32 0-12.118-3.168-15.131-8.266l-9.573-16.19c-7.731-13.076-22.6-21.198-38.805-21.198-16.206 0-31.075 8.122-38.805 21.198l-9.572 16.19c-3.015 5.099-8.813 8.266-15.132 8.266h-93.82c-18.136 0-32.893-13.547-32.893-30.197v-21.733h-34.162v25.258c0 33.381 27.061 60.443 60.443 60.443h97.762c16.174 0 31.051-8.852 38.767-23.068l9.974-18.376c7.509-13.834 27.366-13.834 34.875 0l9.974 18.376c7.716 14.215 22.593 23.068 38.767 23.068h97.762c33.382 0 60.443-27.061 60.443-60.443v-25.258z" fill="url(#SVGID_3_)"/></g><path d="m321.178 251.369h73.728l-92.776-92.776v88.426c5.849 2.803 12.332 4.35 19.048 4.35z" fill="url(#SVGID_4_)"/><g><path d="m389.454 293.335c-25.806-19.386-44.893-46.501-54.762-77.232-15.517-48.319-46.846-81.348-82.967-81.348s-67.449 33.029-82.967 81.348c-9.869 30.731-28.956 57.846-54.762 77.232-22.672 17.031-36.16 38.384-36.16 61.566 0 55.697 77.853 100.849 173.889 100.849s173.889-45.153 173.889-100.85c0-23.181-13.488-44.534-36.16-61.565z" fill="url(#SVGID_5_)"/><path d="m359.556 434.018-198.509-198.509c-10.768 22.696-26.836 42.639-47.052 57.825-22.672 17.032-36.16 38.384-36.16 61.566 0 55.697 77.853 100.849 173.889 100.849 40.735 0 78.193-8.126 107.832-21.731z" fill="url(#SVGID_6_)"/><path d="m389.454 293.335c-25.806-19.386-44.893-46.501-54.762-77.232-15.046-46.853-44.959-79.326-79.691-81.254v320.876c94.524-1.014 170.614-45.763 170.614-100.825-.001-23.181-13.489-44.534-36.161-61.565z" fill="url(#SVGID_7_)"/><path d="m303.597 199.643c1.236-4.469-.094-9.234-3.405-12.48-14.127-13.851-30.716-21.838-48.467-21.838-15.296 0-29.729 5.931-42.469 16.432-3.86 3.182-5.494 8.337-4.161 13.158l.184.665c2.326 8.407 12.207 11.912 19.419 7.006 8.438-5.74 17.537-8.873 27.026-8.873 11.248 0 21.95 4.398 31.652 12.327 7.087 5.791 17.78 2.424 20.221-6.397z" fill="url(#SVGID_8_)"/></g><g><g><path d="m145.676 374.945-36.699 15.252c-7.845 3.261-16.849-.456-20.109-8.302l-22.375-53.838c-3.261-7.846.456-16.849 8.302-20.109l36.699-15.252c7.845-3.261 16.849.456 20.109 8.302l22.375 53.838c3.261 7.845-.456 16.848-8.302 20.109z" fill="url(#SVGID_9_)"/><path d="m128.536 426.601-53.315 22.158c-7.838 3.257-16.832-.456-20.089-8.293l-53.951-129.814c-3.257-7.838.456-16.832 8.293-20.089l53.315-22.158c7.838-3.257 16.832.456 20.089 8.293l53.951 129.813c3.257 7.839-.456 16.833-8.293 20.09z" fill="url(#SVGID_10_)"/></g><g><path d="m364.324 374.945 36.699 15.252c7.846 3.261 16.849-.456 20.109-8.302l22.375-53.838c3.261-7.846-.456-16.849-8.302-20.109l-36.699-15.252c-7.845-3.261-16.849.456-20.109 8.302l-22.375 53.838c-3.261 7.845.456 16.848 8.302 20.109z" fill="url(#SVGID_11_)"/><path d="m381.464 426.601 53.315 22.158c7.838 3.257 16.832-.456 20.089-8.293l53.951-129.813c3.257-7.838-.456-16.832-8.293-20.089l-53.315-22.158c-7.838-3.257-16.832.456-20.089 8.293l-53.951 129.813c-3.257 7.838.456 16.832 8.293 20.089z" fill="url(#SVGID_12_)"/></g></g><g><path d="m391.251 365.01c-2.583-43.111-79.206-76.587-82.092-77.676-6.057-2.285-11.889-5.643-17.353-9.988-22.79-18.122-50.821-18.122-73.611 0-5.464 4.345-11.297 7.703-17.354 9.988-2.886 1.089-79.509 34.565-82.091 77.676-.15 2.503-.226 5.024-.226 7.561 0 73.836 57.152 133.691 136.477 133.691s136.477-59.856 136.477-133.691c-.001-2.537-.077-5.058-.227-7.561z" fill="url(#SVGID_13_)"/><path d="m391.477 372.571c0-2.538-.076-5.059-.226-7.561-2.583-43.111-79.207-76.588-82.092-77.676-6.057-2.285-11.889-5.642-17.353-9.988-11.395-9.061-24.1-13.592-36.806-13.592v242.509c79.325 0 136.477-59.856 136.477-133.692z" fill="url(#SVGID_14_)"/><path d="m119.639 390.24c8.31 65.483 62.471 116.023 135.361 116.023s127.051-50.54 135.361-116.023z" fill="url(#SVGID_15_)"/><path d="m375.374 437.074-71.936-71.936c-11.575-13.101-28.49-21.372-47.347-21.372-34.889 0-63.172 28.283-63.172 63.172 0 18.856 8.272 35.772 21.373 47.347l51.595 51.595c49.16-3.472 88.662-30.359 109.487-68.806z" fill="url(#SVGID_16_)"/><circle cx="255" cy="405.846" fill="url(#SVGID_17_)" r="63.172"/><path d="m256.331 468.985c33.906-.704 61.233-28.106 61.813-62.042l-32.943-32.943c-7.89-9.25-61.995 61.86-61.995 61.86z" fill="url(#SVGID_18_)"/><circle cx="255" cy="405.846" fill="url(#SVGID_19_)" r="44.882"/></g></g></svg>